<svg width="24" height="24" viewBox="0 0 24 24" fill="none" xmlns="http://www.w3.org/2000/svg">
<path d="M12.0012 17C11.7459 16.9987 11.4941 16.9406 11.264 16.8299C11.034 16.7192 10.8315 16.5587 10.6712 16.36L6.46117 11.26C6.21516 10.953 6.06035 10.583 6.01438 10.1923C5.96842 9.80153 6.03314 9.40574 6.20117 9.05C6.33745 8.74083 6.55984 8.47741 6.84179 8.29122C7.12373 8.10503 7.45331 8.00393 7.79117 8H16.2112C16.549 8.00393 16.8786 8.10503 17.1606 8.29122C17.4425 8.47741 17.6649 8.74083 17.8012 9.05C17.9692 9.40574 18.0339 9.80153 17.988 10.1923C17.942 10.583 17.7872 10.953 17.5412 11.26L13.3312 16.36C13.1709 16.5587 12.9684 16.7192 12.7383 16.8299C12.5083 16.9406 12.2565 16.9987 12.0012 17Z" fill="white"/>
</svg>
