<svg width="169" height="50" viewBox="0 0 169 50" fill="none" xmlns="http://www.w3.org/2000/svg">
<rect width="169" height="50" rx="8" fill="#D9D9D9"/>
<path d="M52.6136 33.5V16.0455H54.7273V31.625H62.8409V33.5H52.6136ZM80.1612 24.7727C80.1612 26.6136 79.8288 28.2045 79.1641 29.5455C78.4993 30.8864 77.5874 31.9205 76.4283 32.6477C75.2692 33.375 73.9453 33.7386 72.4567 33.7386C70.968 33.7386 69.6442 33.375 68.4851 32.6477C67.326 31.9205 66.4141 30.8864 65.7493 29.5455C65.0845 28.2045 64.7521 26.6136 64.7521 24.7727C64.7521 22.9318 65.0845 21.3409 65.7493 20C66.4141 18.6591 67.326 17.625 68.4851 16.8977C69.6442 16.1705 70.968 15.8068 72.4567 15.8068C73.9453 15.8068 75.2692 16.1705 76.4283 16.8977C77.5874 17.625 78.4993 18.6591 79.1641 20C79.8288 21.3409 80.1612 22.9318 80.1612 24.7727ZM78.1158 24.7727C78.1158 23.2614 77.8629 21.9858 77.3572 20.946C76.8572 19.9062 76.1783 19.1193 75.3203 18.5852C74.468 18.0511 73.5135 17.7841 72.4567 17.7841C71.3999 17.7841 70.4425 18.0511 69.5845 18.5852C68.7322 19.1193 68.0533 19.9062 67.5476 20.946C67.0476 21.9858 66.7976 23.2614 66.7976 24.7727C66.7976 26.2841 67.0476 27.5597 67.5476 28.5994C68.0533 29.6392 68.7322 30.4261 69.5845 30.9602C70.4425 31.4943 71.3999 31.7614 72.4567 31.7614C73.5135 31.7614 74.468 31.4943 75.3203 30.9602C76.1783 30.4261 76.8572 29.6392 77.3572 28.5994C77.8629 27.5597 78.1158 26.2841 78.1158 24.7727ZM95.647 21.5C95.4595 20.9261 95.2124 20.4119 94.9055 19.9574C94.6044 19.4972 94.2436 19.1051 93.8232 18.7812C93.4084 18.4574 92.9368 18.2102 92.4084 18.0398C91.88 17.8693 91.3004 17.7841 90.6697 17.7841C89.6357 17.7841 88.6953 18.0511 87.8487 18.5852C87.0021 19.1193 86.3288 19.9062 85.8288 20.946C85.3288 21.9858 85.0788 23.2614 85.0788 24.7727C85.0788 26.2841 85.3317 27.5597 85.8374 28.5994C86.343 29.6392 87.0277 30.4261 87.8913 30.9602C88.755 31.4943 89.7266 31.7614 90.8061 31.7614C91.8061 31.7614 92.6868 31.5483 93.4482 31.1222C94.2152 30.6903 94.8118 30.0824 95.2379 29.2983C95.6697 28.5085 95.8857 27.5795 95.8857 26.5114L96.5334 26.6477H91.2834V24.7727H97.9311V26.6477C97.9311 28.0852 97.6243 29.3352 97.0107 30.3977C96.4027 31.4602 95.5618 32.2841 94.4879 32.8693C93.4197 33.4489 92.1925 33.7386 90.8061 33.7386C89.2607 33.7386 87.9027 33.375 86.7322 32.6477C85.5675 31.9205 84.6584 30.8864 84.005 29.5455C83.3572 28.2045 83.0334 26.6136 83.0334 24.7727C83.0334 23.392 83.218 22.1506 83.5874 21.0483C83.9624 19.9403 84.4908 18.9972 85.1726 18.2188C85.8544 17.4403 86.6612 16.8438 87.593 16.429C88.5249 16.0142 89.5504 15.8068 90.6697 15.8068C91.5902 15.8068 92.4482 15.946 93.2436 16.2244C94.0447 16.4972 94.7578 16.8864 95.3828 17.392C96.0135 17.892 96.5391 18.4915 96.9595 19.1903C97.38 19.8835 97.6697 20.6534 97.8288 21.5H95.647ZM116.278 24.7727C116.278 26.6136 115.946 28.2045 115.281 29.5455C114.616 30.8864 113.705 31.9205 112.545 32.6477C111.386 33.375 110.063 33.7386 108.574 33.7386C107.085 33.7386 105.761 33.375 104.602 32.6477C103.443 31.9205 102.531 30.8864 101.866 29.5455C101.202 28.2045 100.869 26.6136 100.869 24.7727C100.869 22.9318 101.202 21.3409 101.866 20C102.531 18.6591 103.443 17.625 104.602 16.8977C105.761 16.1705 107.085 15.8068 108.574 15.8068C110.063 15.8068 111.386 16.1705 112.545 16.8977C113.705 17.625 114.616 18.6591 115.281 20C115.946 21.3409 116.278 22.9318 116.278 24.7727ZM114.233 24.7727C114.233 23.2614 113.98 21.9858 113.474 20.946C112.974 19.9062 112.295 19.1193 111.438 18.5852C110.585 18.0511 109.631 17.7841 108.574 17.7841C107.517 17.7841 106.56 18.0511 105.702 18.5852C104.849 19.1193 104.17 19.9062 103.665 20.946C103.165 21.9858 102.915 23.2614 102.915 24.7727C102.915 26.2841 103.165 27.5597 103.665 28.5994C104.17 29.6392 104.849 30.4261 105.702 30.9602C106.56 31.4943 107.517 31.7614 108.574 31.7614C109.631 31.7614 110.585 31.4943 111.438 30.9602C112.295 30.4261 112.974 29.6392 113.474 28.5994C113.98 27.5597 114.233 26.2841 114.233 24.7727Z" fill="black"/>
</svg>
